<?xml version="1.0" encoding="utf-8"?>
<!-- Generator: Adobe Illustrator 16.0.0, SVG Export Plug-In . SVG Version: 6.00 Build 0)  -->
<!DOCTYPE svg PUBLIC "-//W3C//DTD SVG 1.1//EN" "http://www.w3.org/Graphics/SVG/1.1/DTD/svg11.dtd">
<svg version="1.1" id="Layer_1" xmlns="http://www.w3.org/2000/svg" xmlns:xlink="http://www.w3.org/1999/xlink" x="0px" y="0px"
	 width="301.323px" height="103.209px" viewBox="0 0 301.323 103.209" enable-background="new 0 0 301.323 103.209"
	 xml:space="preserve">
<g>
	<g>
		<path fill-rule="evenodd" clip-rule="evenodd" fill="#777C77" d="M301.68,86.128c-8.729,0-17.456-0.019-26.184,0.025
			c-1.021,0.005-1.27-0.282-1.233-1.273c0.078-2.137,0.064-4.279,0.005-6.417c-0.023-0.845,0.207-1.081,1.058-1.076
			c6.846,0.035,13.692,0,20.538,0.042c0.959,0.006,1.299-0.173,1.278-1.228c-0.072-3.592-0.063-7.186-0.004-10.777
			c0.015-0.93-0.261-1.125-1.139-1.12c-6.847,0.037-13.692,0.003-20.538,0.041c-0.922,0.005-1.24-0.204-1.198-1.184
			c0.082-1.894,0.089-3.796-0.002-5.689c-0.048-1.016,0.333-1.164,1.22-1.161c8.167,0.031,16.335-0.001,24.502,0.044
			c1.01,0.005,1.259-0.265,1.241-1.266c-0.063-3.551-0.044-7.104-0.01-10.656c0.007-0.723-0.161-0.962-0.924-0.961
			c-14.453,0.023-28.906,0.023-43.359,0c-0.771-0.001-0.918,0.254-0.918,0.969c0.018,17.922,0.025,35.845-0.013,53.768
			c-0.002,1.088,0.527,1.009,1.239,1.008c14.813-0.008,29.627-0.006,44.44-0.006C301.68,94.85,301.68,90.488,301.68,86.128z"/>
		<path fill-rule="evenodd" clip-rule="evenodd" fill="#7EAFDA" d="M114.755,0.359c-0.863-0.639-1.998-0.445-2.9-0.962
			c-1.842,0-3.684,0-5.526,0c-0.276,0.496-0.923-0.015-1.21,0.451c0.019,0.471-0.285,0.727-0.627,0.959
			c-1.553,1.065-2.941,2.283-4.166,3.753c-2.877,3.454-4.461,7.439-4.772,11.869c-0.37,5.25,1.149,9.994,4.327,14.215
			c0.502,0.666,1.455,1.1,1.397,2.152c2.857,1.527,5.908,2.131,9.126,1.934c-0.459-0.936-1.467-1.031-2.247-1.436
			c-6.782-3.511-10.092-10.255-9.208-17.72c0.842-7.114,5.996-12.812,12.919-14.524C112.829,0.813,113.792,0.589,114.755,0.359z"/>
		<path fill-rule="evenodd" clip-rule="evenodd" fill="#EB6324" d="M45.081,69.885c-2.324-0.989-4.73-1.199-7.197-0.744
			c-0.422,0.078-0.877-0.129-1.268,0.165c0.074,0.493-0.273,0.676-0.602,0.935c-2.533,1.999-4.836,4.223-6.32,7.152
			c-1.92,3.785-2.943,7.735-2.451,12.063c0.471,4.144,1.779,7.865,4.355,11.16c0.533,0.681,1.528,1.147,1.435,2.258
			c0.724,0.313,1.448,0.626,2.172,0.939c1.683,0,3.364,0,5.046,0c-0.003-0.404-0.338-0.497-0.602-0.672
			c-0.928-0.62-1.933-1.156-2.758-1.896c-4.48-4.019-6.762-8.965-6.271-15.122c0.444-5.563,2.98-9.854,7.393-13.129
			C40.145,71.411,42.62,70.68,45.081,69.885z"/>
		<path fill-rule="evenodd" clip-rule="evenodd" fill="#F18921" d="M45.081,69.885c-2.461,0.795-4.936,1.526-7.068,3.109
			c-4.412,3.274-6.948,7.566-7.393,13.129c-0.49,6.157,1.791,11.104,6.271,15.122c0.825,0.74,1.83,1.276,2.758,1.896
			c0.264,0.175,0.599,0.268,0.602,0.672c1.521,0,3.044,0,4.565,0c0.839-0.517,1.901-0.526,2.671-1.2
			c-0.612-0.164-1.215-0.396-1.838-0.482c-2.263-0.314-4.305-1.188-6.102-2.563c-4.15-3.173-6.15-7.334-6.07-12.68
			c0.09-6.14,4.883-12.021,10.658-13.633c2.208-0.616,4.443-0.27,6.649-0.561C48.999,71.519,47.283,70.199,45.081,69.885z"/>
		<path fill-rule="evenodd" clip-rule="evenodd" fill="#E44426" d="M-0.357,89.035c0.678,1.602,1.177,3.272,2.289,4.681
			c1.174,1.485,2.488,2.747,4.203,3.554c0.708-0.382,0.479-1.045,0.439-1.618c-0.127-1.797-0.342-3.588-0.436-5.387
			c-0.246-4.792,0.366-9.56,0.463-14.343c-3.509,1.603-5.699,4.326-6.716,8.043c-0.05,0.181,0.026,0.409-0.243,0.467
			C-0.357,85.967-0.357,87.501-0.357,89.035z"/>
		<path fill-rule="evenodd" clip-rule="evenodd" fill="#FAB51A" d="M68.645,63.354c-0.014,1.694-0.154,3.4-0.014,5.082
			c0.274,3.306-2.148,6.041-5.865,6.01c-0.873-0.007-1.744-0.001-2.727-0.001c4.46,8.219,4.432,16.334-0.041,24.572
			c4.054-0.3,8.05,0.533,11.927-0.787c0.184-0.063,0.348-0.18,0.521-0.271c-0.207-0.814-0.41-1.631-0.623-2.443
			c-1.003-3.826-1.578-7.696-1.033-11.655c0.73-5.314,2.575-10.2,5.789-14.5c1.141-1.526,2.291-3.089,3.999-4.069
			c0-3.795,0-7.591-0.001-11.387c-0.377-0.037-0.717,0.1-1.018,0.295c-2.984,1.935-5.764,4.101-8.15,6.787
			C70.622,61.873,70.232,63.372,68.645,63.354z"/>
		<path fill-rule="evenodd" clip-rule="evenodd" fill="#B5D8ED" d="M129.228,29.276c3.834-0.357,7.512,0.405,11.146-0.547
			c5.768-1.51,9.808-7.072,9.169-13.01c-0.442-4.106-2.67-7.135-6.218-9.178c-2.23-1.285-4.621-1.902-7.203-1.828
			c-1.958,0.056-3.919,0-5.879,0.018c-0.33,0.004-0.789-0.202-0.967,0.219c-0.128,0.304,0.198,0.575,0.345,0.854
			c1.464,2.793,2.347,5.736,2.69,8.904c0.538,4.98-0.622,9.537-2.873,13.898C129.369,28.741,129.344,28.901,129.228,29.276z"/>
		<path fill-rule="evenodd" clip-rule="evenodd" fill="#A5CCE7" d="M121.966,28.958c2.258-2.088,3.488-4.803,4.214-7.691
			c1.102-4.39,0.572-8.662-1.618-12.673c-0.505,0.089-0.789-0.271-1.143-0.534c-5.631-4.213-13.767-2.771-17.588,3.107
			c-3.809,5.859-1.874,13.939,4.186,17.328c2.424,1.355,4.976,1.955,7.807,1.493C119.251,29.755,120.517,28.999,121.966,28.958z
			 M116.087,23.382c-3.25,0.296-5.611-2.63-5.666-5.549c-0.056-3.055,2.587-5.617,5.693-5.598c2.883,0.02,5.613,2.724,5.578,5.654
			C121.654,21.038,118.91,23.688,116.087,23.382z"/>
		<path fill-rule="evenodd" clip-rule="evenodd" fill="#70A5D5" d="M81.333,4.767c-3.005,0.002-5.672,1.004-8.012,2.859
			c-0.694,0.549-1.633,0.907-1.86,1.932c0.568,0.247,0.472,0.758,0.515,1.238c0.149,1.696-0.274,3.357-0.26,5.049
			c0.033,3.857,0.066,7.703,0.454,11.554c0.446,4.431,1.163,8.796,2.137,13.134c0.854,3.805,2.054,7.502,3.177,11.226
			c1.016,0.02,2.029,0.038,3.045,0.058c0.207-2.25,0.063-4.506,0.081-6.76c0.026-3.344,0.055-6.69-0.02-10.033
			c-0.03-1.352,0.273-2.535,0.993-3.641c-0.16-0.494-0.41-0.978-0.466-1.482c-0.433-3.98-0.816-7.962-0.757-11.979
			c0.039-2.727,0.126-5.441,0.479-8.148C81.056,8.11,81.172,6.436,81.333,4.767z"/>
		<path fill-rule="evenodd" clip-rule="evenodd" fill="#91BCE1" d="M121.966,28.958c-1.449,0.041-2.715,0.797-4.143,1.03
			c-2.831,0.462-5.383-0.138-7.807-1.493c-6.06-3.389-7.994-11.469-4.186-17.328c3.821-5.879,11.957-7.321,17.588-3.107
			c0.354,0.264,0.638,0.623,1.143,0.534c-2.048-3.961-5.281-6.552-9.33-8.195c-0.142-0.057-0.316-0.028-0.477-0.04
			c-0.963,0.23-1.927,0.454-2.888,0.691c-6.923,1.712-12.077,7.41-12.919,14.524c-0.884,7.465,2.426,14.209,9.208,17.72
			c0.78,0.404,1.788,0.5,2.247,1.436C114.931,34.179,118.878,32.443,121.966,28.958z"/>
		<path fill-rule="evenodd" clip-rule="evenodd" fill="#FABF1E" d="M80.579,65.291c-1.708,0.98-2.858,2.543-3.999,4.069
			c-3.214,4.3-5.059,9.186-5.789,14.5c-0.545,3.959,0.03,7.829,1.033,11.655c0.213,0.813,0.416,1.629,0.623,2.443
			c3.782-1.073,7.648-5.63,7.92-9.459C80.915,80.77,80.524,73.027,80.579,65.291z"/>
		<path fill-rule="evenodd" clip-rule="evenodd" fill="#689ED1" d="M77.484,51.758c-1.123-3.724-2.322-7.421-3.177-11.226
			c-0.974-4.338-1.69-8.703-2.137-13.134c-0.388-3.851-0.421-7.696-0.454-11.554c-0.015-1.691,0.409-3.353,0.26-5.049
			c-0.043-0.48,0.054-0.991-0.515-1.238c-1.829,1.844-2.789,4.182-2.812,6.678c-0.104,11.693-0.048,23.388-0.045,35.082
			c0,0.158,0.048,0.317,0.073,0.476C71.613,51.781,74.549,51.77,77.484,51.758z"/>
		<path fill-rule="evenodd" clip-rule="evenodd" fill="#F5991F" d="M50.785,72.695c-2.206,0.291-4.441-0.056-6.649,0.561
			c-5.775,1.612-10.568,7.493-10.658,13.633c-0.08,5.346,1.92,9.507,6.07,12.68c1.797,1.375,3.839,2.248,6.102,2.563
			c0.623,0.087,1.226,0.318,1.838,0.482c2.591-1.07,4.656-2.803,6.293-5.076c-0.585-0.07-1.099,0.177-1.606,0.397
			c-3.868,1.682-9.348,0.602-12.149-2.649c-2.795-3.242-3.689-6.965-2.536-10.881c2.219-7.533,10.553-10.126,16.584-6.273
			c0.491,0.313,0.906,0.824,1.588,0.721C54.642,76.311,52.754,74.47,50.785,72.695z"/>
		<path fill-rule="evenodd" clip-rule="evenodd" fill="#F8A81C" d="M55.66,78.852c-0.682,0.104-1.097-0.407-1.588-0.721
			c-6.031-3.853-14.365-1.26-16.584,6.273c-1.153,3.916-0.259,7.639,2.536,10.881c2.802,3.251,8.281,4.331,12.149,2.649
			c0.508-0.221,1.021-0.468,1.606-0.397c1.909-2.062,2.91-4.601,3.453-7.283c0.784-3.877,0.326-7.662-1.402-11.254
			C55.8,78.938,55.717,78.9,55.66,78.852z M56.109,87.494c0.216,4.652-3.376,8.2-7.993,8.249c-4.304,0.045-8.047-3.371-8.096-8.13
			c-0.045-4.587,3.648-8.314,8.189-8.256C52.025,79.405,56.309,82.561,56.109,87.494z"/>
		<path fill-rule="evenodd" clip-rule="evenodd" fill="#7EAFDA" d="M81.333,4.767c-0.161,1.669-0.277,3.344-0.494,5.006
			c-0.353,2.707-0.439,5.422-0.479,8.148c-0.06,4.017,0.324,7.998,0.757,11.979c0.056,0.505,0.306,0.988,0.466,1.482
			c1.428-1.803,3.396-2.192,5.533-2.178c1.891,0.012,1.869,0.01,1.094-1.705c-3.236-7.167-3.294-14.302,0.252-21.392
			c0.686-1.372,0.68-1.38-0.901-1.376C85.485,4.738,83.41,4.755,81.333,4.767z"/>
		<path fill-rule="evenodd" clip-rule="evenodd" fill="#EB6324" d="M12.617,98.928c2.435,0,4.869,0,7.419,0
			c-4.414-8.108-4.508-16.223,0.008-24.416c-2.535,0-4.98,0-7.426,0c-0.238,2.381-0.648,4.759-0.682,7.143
			C11.854,87.42,11.649,93.201,12.617,98.928z"/>
		<path fill-rule="evenodd" clip-rule="evenodd" fill="#E75325" d="M12.617,98.928c-0.968-5.727-0.763-11.508-0.681-17.273
			c0.033-2.384,0.443-4.762,0.682-7.143c-2.139-0.108-4.172,0.235-6.016,1.41c-0.097,4.783-0.709,9.551-0.463,14.343
			c0.094,1.799,0.309,3.59,0.436,5.387c0.039,0.573,0.269,1.236-0.439,1.618C8.139,98.445,10.293,99.023,12.617,98.928z"/>
		<path fill-rule="evenodd" clip-rule="evenodd" fill="#F8A81C" d="M77.484,51.758c-2.935,0.012-5.871,0.023-8.806,0.035
			c-0.144,3.853-0.074,7.707-0.033,11.561c1.587,0.019,1.977-1.48,2.765-2.367c2.387-2.687,5.166-4.853,8.15-6.787
			c0.301-0.195,0.641-0.332,1.018-0.295c0.043-0.697,0.107-1.396-0.049-2.089C79.513,51.796,78.5,51.777,77.484,51.758z"/>
		<path fill-rule="evenodd" clip-rule="evenodd" fill="#E75325" d="M33.033,102.874c0.094-1.11-0.901-1.577-1.435-2.258
			c-2.576-3.295-3.885-7.017-4.355-11.16c-0.492-4.328,0.531-8.278,2.451-12.063c1.484-2.93,3.787-5.153,6.32-7.152
			c0.328-0.259,0.676-0.441,0.602-0.935c-2.02,0.502-4.016,1.067-5.736,2.324c0.053,0.835-0.633,1.27-1.037,1.828
			c-5.129,7.086-6.086,14.71-3.043,22.902c0.389,1.045,1.15,1.946,1.187,3.124C29.409,101.008,31.105,102.115,33.033,102.874z"/>
		<path fill-rule="evenodd" clip-rule="evenodd" fill="#689ED1" d="M101.521,1.109C97.07,3.185,94.1,6.624,92.506,11.257
			c-2.479,7.205-0.046,14.955,5.411,19.363c0.037-0.457-0.121-0.829-0.35-1.238c-2.516-4.492-3.83-9.242-3.02-14.455
			c0.717-4.619,2.518-8.693,5.803-12.048C100.855,2.365,101.441,1.906,101.521,1.109z"/>
		<path fill-rule="evenodd" clip-rule="evenodd" fill="#E44426" d="M27.986,99.484c-0.036-1.178-0.798-2.079-1.187-3.124
			c-3.043-8.192-2.086-15.816,3.043-22.902c0.404-0.559,1.09-0.993,1.037-1.828c-4.579,2.962-7.438,7.049-8.185,12.564
			C21.881,90.211,23.636,95.297,27.986,99.484z"/>
		<path fill-rule="evenodd" clip-rule="evenodd" fill="#70A5D5" d="M101.521,1.109c-0.08,0.797-0.666,1.256-1.17,1.77
			c-3.285,3.354-5.086,7.429-5.803,12.048c-0.811,5.213,0.504,9.963,3.02,14.455c0.229,0.409,0.387,0.781,0.35,1.238
			c1.031,0.865,2.109,1.656,3.36,2.176c0.058-1.053-0.896-1.486-1.397-2.152c-3.178-4.221-4.697-8.965-4.327-14.215
			c0.312-4.43,1.896-8.415,4.772-11.869c1.225-1.47,2.613-2.688,4.166-3.753c0.342-0.233,0.646-0.489,0.627-0.959
			C103.82-0.022,102.648,0.476,101.521,1.109z"/>
		<path fill-rule="evenodd" clip-rule="evenodd" fill="#777C77" d="M194.291,74.97c-1.465-2.476-3.585-4.119-6.265-5.044
			c-0.295-0.101-0.563-0.209-0.843-0.39c1.957-1.484,3.733-3.098,5.066-5.2c2.994-4.726,2.721-11.405-1.088-15.572
			c-1.978-2.163-4.62-3.321-7.415-4.052c-3.391-0.885-6.842-1.251-10.35-1.236c-8.888,0.039-17.776,0.029-26.664-0.01
			c-0.979-0.004-1.263,0.217-1.261,1.244c0.034,17.762,0.034,35.522,0,53.283c-0.002,1.035,0.291,1.244,1.266,1.24
			c9.287-0.038,18.578,0.079,27.863-0.068c4.381-0.069,8.767-0.626,12.835-2.47c4.808-2.18,7.815-5.791,8.547-11.201
			C196.484,81.789,196.235,78.256,194.291,74.97z M164.009,56.332c3.347,0.05,6.708-0.232,10.029,0.34
			c0.949,0.163,1.921,0.483,2.495,1.416c1.463,2.377,0.915,6.231-2.61,7.2c-3.248,0.893-6.577,0.349-9.868,0.489
			c-0.547,0.023-0.541-0.327-0.54-0.711c0.005-1.33,0.002-2.66,0.002-3.99s-0.003-2.66,0.002-3.99
			C163.52,56.734,163.441,56.323,164.009,56.332z M178.645,83.675c-1.043,1.911-3.032,2.303-4.91,2.405
			c-3.151,0.172-6.319,0.035-9.479,0.058c-0.577,0.005-0.753-0.188-0.749-0.762c0.023-2.863,0.034-5.729-0.006-8.592
			c-0.01-0.738,0.285-0.859,0.916-0.843c1.439,0.037,2.881,0.012,4.602,0.012c1.747,0.068,3.773-0.085,5.803,0.225
			C179.25,76.853,180.269,80.7,178.645,83.675z"/>
		<path fill-rule="evenodd" clip-rule="evenodd" fill="#777C77" d="M252.249,97.596c-1.914-0.765-1.668-2.472-1.722-3.96
			c-0.098-2.661,0.041-5.331-0.049-7.992c-0.078-2.312-0.394-4.619-1.305-6.766c-1.217-2.863-3.682-4.28-6.413-5.335
			c-0.404-0.156-0.812-0.306-1.216-0.463c-0.106-0.042-0.206-0.101-0.319-0.156c4.935-1.465,7.733-4.824,8.806-9.799
			c0.697-3.236,0.558-6.444-0.364-9.581c-1.434-4.875-5.147-7.267-9.709-8.576c-2.429-0.698-4.911-1.124-7.45-1.249
			c-10.637-0.524-21.28-0.07-31.918-0.244c-0.791-0.013-0.798,0.377-0.796,0.961c0.015,3.876,0.007,7.752,0.007,11.627
			c0,13.969,0.012,27.937-0.022,41.904c-0.003,0.996,0.224,1.28,1.238,1.27c5.204-0.056,10.41-0.061,15.615,0.002
			c1.06,0.014,1.218-0.342,1.211-1.295c-0.044-5.652,0.004-11.305-0.046-16.956c-0.009-0.981,0.284-1.205,1.202-1.179
			c2.28,0.063,4.564-0.004,6.846,0.029c1.391,0.021,2.747,0.318,4.021,0.882c2.268,1.003,2.81,3.083,3.086,5.273
			c0.339,2.687,0.15,5.397,0.284,8.091c0.073,1.457,0.216,2.936,0.574,4.376c0.14,0.563,0.34,0.767,0.935,0.764
			c5.605-0.023,11.212-0.01,16.817-0.022c0.309-0.001,0.811,0.208,0.837-0.374C252.417,98.41,252.656,97.759,252.249,97.596z
			 M229.626,66.984c-3.734,0.92-7.541,0.33-11.313,0.484c-0.567,0.022-0.489-0.4-0.49-0.752c-0.004-1.572-0.002-3.145-0.002-4.717
			c0-1.492,0.049-2.986-0.019-4.475c-0.042-0.907,0.163-1.26,1.157-1.223c2.196,0.084,4.397,0.031,6.597,0.025
			c1.513-0.005,2.971,0.237,4.429,0.68c2.755,0.836,3.769,3.441,3.692,5.496C233.595,64.748,232.162,66.36,229.626,66.984z"/>
		<path fill-rule="evenodd" clip-rule="evenodd" fill="#777C77" d="M142.794,66.788c-0.359-5.087-1.707-9.934-4.965-14.045
			c-2.917-3.682-6.664-6.119-11.077-7.533c-3.483-1.117-7.062-1.72-10.728-1.721c-8.326-0.002-16.65,0.019-24.977-0.024
			c-1.023-0.005-1.334,0.202-1.327,1.304c0.053,8.878,0.029,17.757,0.029,26.635c0,8.879,0.016,17.757-0.022,26.636
			c-0.004,0.955,0.249,1.197,1.188,1.193c8.205-0.038,16.415,0.147,24.614-0.077c6.243-0.171,12.298-1.362,17.568-5.181
			c4.499-3.261,7.088-7.734,8.546-12.995C142.933,76.325,143.13,71.544,142.794,66.788z M124.251,76.801
			c-0.898,4.383-3.348,7.489-7.736,8.795c-2.525,0.751-5.127,0.467-7.703,0.551c-0.847,0.028-1.068-0.222-1.061-1.07
			c0.041-4.597,0.02-9.194,0.02-13.792c0-4.639,0.022-9.276-0.021-13.914c-0.008-0.864,0.246-1.062,1.072-1.063
			c2.551-0.004,5.097,0.046,7.605,0.52c3.693,0.697,6.402,2.622,7.442,6.446C125.087,67.747,125.179,72.278,124.251,76.801z"/>
		<path fill-rule="evenodd" clip-rule="evenodd" fill="#B5D8ED" d="M116.087,23.382c2.822,0.307,5.566-2.344,5.605-5.492
			c0.035-2.931-2.695-5.635-5.578-5.654c-3.106-0.02-5.749,2.543-5.693,5.598C110.476,20.752,112.837,23.678,116.087,23.382z"/>
		<path fill-rule="evenodd" clip-rule="evenodd" fill="#FAB51A" d="M56.109,87.494c0.2-4.934-4.084-8.089-7.899-8.137
			c-4.541-0.059-8.234,3.669-8.189,8.256c0.049,4.759,3.792,8.175,8.096,8.13C52.733,95.694,56.325,92.146,56.109,87.494z
			 M48.081,83.946c2.49-0.182,3.563,1.863,3.682,3.591c0.128,1.852-1.702,3.668-3.551,3.68c-2.016,0.013-3.75-1.625-3.803-3.59
			C44.357,85.688,46.082,83.959,48.081,83.946z"/>
		<path fill-rule="evenodd" clip-rule="evenodd" fill="#FABF1E" d="M48.081,83.946c-1.999,0.013-3.724,1.742-3.672,3.681
			c0.053,1.965,1.787,3.603,3.803,3.59c1.849-0.012,3.679-1.828,3.551-3.68C51.644,85.81,50.571,83.765,48.081,83.946z"/>
	</g>
</g>
</svg>
